<?xml version="1.0" standalone="no"?><svg xmlns="http://www.w3.org/2000/svg" viewBox="0 0 1440 320"><path fill="#b1c8fc" fill-opacity="1" d="M0,160L34.3,149.3C68.6,139,137,117,206,112C274.3,107,343,117,411,144C480,171,549,213,617,202.7C685.7,192,754,128,823,122.7C891.4,117,960,171,1029,165.3C1097.1,160,1166,96,1234,106.7C1302.9,117,1371,203,1406,245.3L1440,288L1440,0L1405.7,0C1371.4,0,1303,0,1234,0C1165.7,0,1097,0,1029,0C960,0,891,0,823,0C754.3,0,686,0,617,0C548.6,0,480,0,411,0C342.9,0,274,0,206,0C137.1,0,69,0,34,0L0,0Z"></path></svg>